# xmcd CD database file
#
# Track frame offsets:
#	150
#	32562
#	66070
#	103162
#	132957
#	193447
#	213830
#	241790
#	276380
#
# Disc length: 3936 seconds
#
# Revision: 0
# Processed by: cddbd v1.5.2PL0 Copyright (c) Steve Scherf et al.
# Submitted via: CDex 1.51
#
DISCID=850f5e09
DTITLE=Darryl White - Ancient Memories
DYEAR=1999
DGENRE=Jazz
TTITLE0=Ancient Memories
TTITLE1=B and B
TTITLE2=Bolero
TTITLE3=Bemsha Swing
TTITLE4=The Tree has Fallen...but the roots will live forever.
TTITLE5=Well 'U Needn't
TTITLE6=Beautiful Love
TTITLE7=Half Steppin'
TTITLE8=Be Sweet
EXTD=YEAR: 1999
EXTT0=
EXTT1=
EXTT2=
EXTT3=
EXTT4=
EXTT5=
EXTT6=
EXTT7=
EXTT8=
PLAYORDER=
